<svg width="4400" height="2475" xmlns="http://www.w3.org/2000/svg" xmlns:xlink="http://www.w3.org/1999/xlink" xml:space="preserve" overflow="hidden"><defs><clipPath id="clip0"><rect x="1112" y="0" width="2176" height="2475"/></clipPath><clipPath id="clip1"><rect x="1112" y="0" width="2176" height="2475"/></clipPath><clipPath id="clip2"><rect x="0" y="770" width="4400" height="935"/></clipPath><clipPath id="clip3"><rect x="0" y="770" width="4400" height="935"/></clipPath></defs><g><path d="M1937.12 466.319C1859.1 449.882 1782.78 458.199 1778.85 539.467 1653.5 556.427 1680.21 686.941 1770.99 706.325 1732.7 770.043 1851.57 844.5 1934.5 788.182 1984.77 840.898 2079.69 820.074 2104.63 768.013 2191.88 797.285 2302.5 696.436 2214.13 632.653 2259.82 573.716 2190.24 486.75 2117.78 501.288 2093.5 424.801 2000.09 404.5 1937.12 466.319Z" stroke="#104862" stroke-width="9.16667" stroke-linejoin="round" stroke-miterlimit="10" fill="none" fill-rule="evenodd"/><text fill="#236491" font-family="Aptos,Aptos_MSFontService,sans-serif" font-weight="400" font-size="73" transform="matrix(1 0 0 1 1890.63 604)">Local</text><text fill="#236491" font-family="Aptos,Aptos_MSFontService,sans-serif" font-weight="400" font-size="73" transform="matrix(1 0 0 1 1844.18 692)">Network</text><path d="M998 764.844C998 768.252 994.612 771 992.208 771L817.917 771C815.185 771 813 768.252 813 764.844L813 746.266C813 742.858 815.185 740 817.917 740L992.208 740C994.94 740 998 742.858 998 746.266L998 764.844Z" fill="#46B1E1" fill-rule="evenodd"/><path d="M998 761.844C998 765.252 994.612 768 992.208 768L817.917 768C815.185 768 813 765.252 813 761.844L813 743.156C813 739.748 815.185 737 817.917 737L992.208 737C994.94 737 998 739.748 998 743.156L998 761.844Z" fill="#104862" fill-rule="evenodd"/><path d="M819 743 819 749.37 825.132 749.37 825.132 743 819 743ZM828.198 743 828.198 749.37 834.439 749.37 834.439 743 828.198 743ZM837.505 743 837.505 749.37 843.636 749.37 843.636 743 837.505 743ZM846.812 743 846.812 749.37 852.943 749.37 852.943 743 846.812 743ZM856.009 743 856.009 749.37 862.25 749.37 862.25 743 856.009 743ZM865.316 743 865.316 749.37 871.448 749.37 871.448 743 865.316 743ZM874.623 743 874.623 749.37 880.755 749.37 880.755 743 874.623 743ZM883.82 743 883.82 749.37 890.062 749.37 890.062 743 883.82 743ZM893.127 743 893.127 749.37 899.259 749.37 899.259 743 893.127 743ZM902.434 743 902.434 749.37 908.566 749.37 908.566 743 902.434 743ZM911.632 743 911.632 749.37 917.873 749.37 917.873 743 911.632 743ZM920.939 743 920.939 749.37 927.07 749.37 927.07 743 920.939 743ZM930.246 743 930.246 749.37 936.377 749.37 936.377 743 930.246 743ZM939.443 743 939.443 749.37 945.684 749.37 945.684 743 939.443 743ZM948.75 743 948.75 749.37 954.882 749.37 954.882 743 948.75 743ZM958.057 743 958.057 749.37 964.189 749.37 964.189 743 958.057 743ZM967.255 743 967.255 749.37 973.496 749.37 973.496 743 967.255 743ZM976.561 743 976.561 749.37 982.693 749.37 982.693 743 976.561 743ZM985.868 743 985.868 749.37 992 749.37 992 743 985.868 743ZM819 755.629 819 762 825.132 762 825.132 755.629 819 755.629ZM828.198 755.629 828.198 762 834.439 762 834.439 755.629 828.198 755.629ZM837.505 755.629 837.505 762 843.636 762 843.636 755.629 837.505 755.629ZM846.812 755.629 846.812 762 852.943 762 852.943 755.629 846.812 755.629ZM856.009 755.629 856.009 762 862.25 762 862.25 755.629 856.009 755.629ZM865.316 755.629 865.316 762 871.448 762 871.448 755.629 865.316 755.629ZM874.623 755.629 874.623 762 880.755 762 880.755 755.629 874.623 755.629ZM883.82 755.629 883.82 762 890.062 762 890.062 755.629 883.82 755.629ZM893.127 755.629 893.127 762 899.259 762 899.259 755.629 893.127 755.629ZM902.434 755.629 902.434 762 908.566 762 908.566 755.629 902.434 755.629ZM911.632 755.629 911.632 762 917.873 762 917.873 755.629 911.632 755.629ZM920.939 755.629 920.939 762 927.07 762 927.07 755.629 920.939 755.629ZM930.246 755.629 930.246 762 936.377 762 936.377 755.629 930.246 755.629ZM939.443 755.629 939.443 762 945.684 762 945.684 755.629 939.443 755.629ZM948.75 755.629 948.75 762 954.882 762 954.882 755.629 948.75 755.629ZM958.057 755.629 958.057 762 964.189 762 964.189 755.629 958.057 755.629ZM967.255 755.629 967.255 762 973.496 762 973.496 755.629 967.255 755.629ZM976.561 755.629 976.561 762 982.693 762 982.693 755.629 976.561 755.629ZM985.868 755.629 985.868 762 992 762 992 755.629 985.868 755.629Z" fill="#46B1E1" fill-rule="evenodd"/><path d="M767.597 509C765.417 509 764 510.424 764 512.616L764 687.692C764 689.883 765.417 691.417 767.597 691.417L883.893 691.417 883.893 706.865 856.209 706.865C854.356 706.865 853.157 708.07 853.157 709.932 853.157 711.795 854.356 713 856.209 713L969.999 713C971.852 713 973.159 711.795 973.159 709.932 973.159 708.07 971.852 706.865 969.999 706.865L939.262 706.865 939.262 691.417 1046.4 691.417C1048.47 691.417 1050 689.883 1050 687.692L1050 512.616C1050 510.424 1048.47 509 1046.4 509L767.597 509Z" fill="#104862" fill-rule="evenodd"/><rect x="779" y="521" width="256" height="145" fill="#F2F2F2"/><path d="M779 521 1035 521 1035 666 779 521Z" fill="#D9D9D9" fill-rule="evenodd"/><text font-family="Aptos,Aptos_MSFontService,sans-serif" font-weight="400" font-size="73" transform="matrix(1 0 0 1 768.138 881)">Terminal</text><text font-family="Aptos,Aptos_MSFontService,sans-serif" font-weight="400" font-size="73" transform="matrix(1 0 0 1 1053.89 881)">Client</text><text font-family="Aptos,Aptos_MSFontService,sans-serif" font-weight="400" font-size="73" transform="matrix(1 0 0 1 664.715 969)">(</text><text font-family="Aptos,Aptos_MSFontService,sans-serif" font-weight="400" font-size="73" transform="matrix(1 0 0 1 686.486 969)">Powershell</text><text font-family="Aptos,Aptos_MSFontService,sans-serif" font-weight="400" font-size="73" transform="matrix(1 0 0 1 1032.8 969)">, Curl, </text><text font-family="Aptos,Aptos_MSFontService,sans-serif" font-weight="400" font-size="73" transform="matrix(1 0 0 1 1240.77 969)">etc</text><text font-family="Aptos,Aptos_MSFontService,sans-serif" font-weight="400" font-size="73" transform="matrix(1 0 0 1 1340.67 969)">)</text><path d="M2924.48 623.442 2221.5 584.5" stroke="#104862" stroke-width="9.16667" stroke-miterlimit="8" fill="none" fill-rule="evenodd"/><path d="M2569.07 545.362C2566.42 545.077 2563.83 545.224 2562.77 545.729 2561.62 546.223 2562.12 547.036 2563.93 547.75 2583.32 555.81 2586.76 562.021 2570.86 566.465 2568.29 567.195 2565.13 567.88 2561.6 568.445 2559.07 568.853 2559.22 570.077 2561.89 570.994 2564.56 571.936 2569.17 572.402 2571.7 571.994 2575.75 571.313 2579.31 570.55 2582.39 569.679 2601.26 564.427 2596.52 555.775 2574.48 546.625 2573.15 546.068 2571.13 545.578 2569.07 545.362ZM2532.22 544.858C2532.02 544.835 2531.73 544.8 2531.53 544.802 2529.17 544.576 2526.87 544.733 2525.93 545.175 2524.88 545.606 2525 546.324 2526.41 546.992 2536.06 551.871 2535.63 557.201 2524.42 560.537 2522.47 561.112 2523.51 562.391 2526.59 563.229 2529.66 564.068 2534.2 564.299 2536.15 563.724 2549.93 559.609 2550.92 552.861 2538 546.316 2536.78 545.695 2534.57 545.109 2532.22 544.858ZM2491.84 543.965C2489.39 543.702 2487.09 543.81 2485.95 544.204 2484.72 544.612 2484.73 545.293 2485.85 545.952 2490.49 548.634 2490.48 550.468 2485.03 552.091 2483.17 552.678 2484.21 553.956 2487.29 554.77 2490.27 555.598 2494.91 555.84 2496.76 555.253 2504.37 552.979 2504.6 549.384 2498 545.568 2496.79 544.873 2494.29 544.227 2491.84 543.965Z" stroke="#FFFFFF" stroke-width="4.58333" stroke-miterlimit="8" fill="#1F608B" fill-rule="evenodd"/><g clip-path="url(#clip0)"><g clip-path="url(#clip1)"></g></g><g clip-path="url(#clip2)"><g clip-path="url(#clip3)"></g></g><path d="M89.4077 113.965C69.7659 113.965 53.8653 97.7679 53.8653 77.8118L53.8653 36.1095C53.8653 33.9001 53.783 31.8121 53.6953 29.34L21.2563 29.34C20.9717 29.34 20.5943 29.0795 20.5943 28.6787L20.5943 0.969649C20.5943 0.650411 20.8716 0.311439 21.2501 0.308307 36.948 0.162012 53.1393-0.0450821 66.8355 0.0354512L118.179-0.0348603 153.06-0.0348603 383.269-0.0348603 418.151-0.0348603 465.957-0.0348603C482.164 0.00555402 498.699 0.137432 515.269 0.245381 515.593 0.246386 515.927 0.529818 515.927 0.906723L515.927 31.7533C515.927 32.0378 515.667 32.4147 515.265 32.4147L482.185 32.4147 482.463 77.8075C482.467 97.7711 466.562 113.965 446.923 113.965L89.4074 113.965ZM89.4077 112.641 446.923 112.641C465.809 112.641 481.14 97.0542 481.14 77.8149L480.855 31.7586C480.855 31.3581 481.228 31.0923 481.52 31.0923L514.604 31.0923 514.604 1.56487C498.231 1.45693 481.943 1.33001 465.957 1.28782L418.151 1.28782 383.269 1.28782 153.061 1.28782 118.18 1.28782 66.8278 1.35813C53.4148 1.28079 37.0162 1.48263 21.9205 1.62674L21.9205 28.0167 54.3334 28.0167C54.6924 28.0167 54.9852 28.3172 54.9955 28.6562 55.082 31.156 55.1893 33.6898 55.1893 36.1095L55.1893 77.8118C55.1893 97.0574 70.5201 112.641 89.4081 112.641ZM138.24 70.2122C152.284 70.2122 162.862 68.7228 162.862 55.1385 162.862 41.5514 153.209 40.9702 139.131 40.9702 125.016 40.9702 113.613 41.6049 113.613 55.1385 113.613 68.7208 124.199 70.2122 138.24 70.2122ZM138.24 71.5349C124.353 71.5349 112.287 69.9745 112.287 55.1385 112.287 40.2533 125.312 39.6458 139.131 39.6458 152.988 39.6458 164.187 40.3008 164.187 55.1385 164.187 69.9741 152.129 71.5349 138.24 71.5349ZM373.681 65.1226C379.084 65.1226 383.483 60.6634 383.483 55.1385 383.483 49.6133 379.084 45.152 373.681 45.152 368.279 45.152 363.88 49.6133 363.88 55.1385 363.88 60.6634 368.279 65.1226 373.681 65.1226ZM373.681 66.4463C367.529 66.4463 362.556 61.3743 362.556 55.1385 362.556 48.9035 367.529 43.8297 373.681 43.8297 379.837 43.8297 384.807 48.9035 384.807 55.1385 384.807 61.3743 379.837 66.4463 373.681 66.4463ZM414.659 65.1226C420.062 65.1226 424.468 60.6616 424.468 55.1385 424.465 49.6143 420.062 45.152 414.659 45.152 409.257 45.152 404.858 49.6133 404.858 55.1385 404.858 60.6634 409.257 65.1226 414.659 65.1226ZM414.659 66.4463C408.504 66.4463 403.534 61.3743 403.534 55.1385 403.534 48.9035 408.504 43.8297 414.659 43.8297 420.812 43.8297 425.792 48.9028 425.792 55.1385 425.792 61.3743 420.812 66.4463 414.659 66.4463ZM525.814 32.4147C525.528 32.4147 525.152 32.1542 525.152 31.7533L525.152 0.962263C525.152 0.671859 525.416 0.298794 525.817 0.300921 529.418 0.320597 532.666 0.344172 536.341 0.360657 536.629 0.362784 537.006 0.629672 536.999 1.02832L536.731 31.7596C536.728 32.081 536.45 32.4147 536.07 32.4147L525.814 32.4147ZM526.475 31.092 535.411 31.092 535.668 1.68234C532.349 1.66473 529.305 1.64293 526.475 1.62745L526.475 31.092ZM0.660787 29.34C0.376232 29.34-0.00118293 29.0795-0.00118293 28.6787L-0.00118293 1.11063C-0.00118293 0.821286 0.263854 0.446153 0.663922 0.447158 3.81496 0.461574 7.57959 0.393744 10.9668 0.376137 11.2576 0.375073 11.6329 0.638771 11.6329 1.03961L11.6329 28.6787C11.6329 28.9631 11.37 29.34 10.9699 29.34L0.660787 29.34ZM1.32282 28.0163 10.3079 28.0163 10.3079 1.70479C7.31769 1.72553 3.69537 1.7748 1.32282 1.77268L1.32282 28.0163ZM138.24 70.2122C152.284 70.2122 162.862 68.7228 162.862 55.1385 162.862 41.5514 153.209 40.9702 139.131 40.9702 125.016 40.9702 113.613 41.6049 113.613 55.1385 113.613 68.7208 124.199 70.2122 138.24 70.2122ZM138.24 71.5349C124.353 71.5349 112.287 69.9745 112.287 55.1385 112.287 40.2533 125.312 39.6458 139.131 39.6458 152.988 39.6458 164.187 40.3008 164.187 55.1385 164.187 69.9741 152.129 71.5349 138.24 71.5349ZM373.681 65.1226C379.084 65.1226 383.483 60.6634 383.483 55.1385 383.483 49.6133 379.084 45.152 373.681 45.152 368.279 45.152 363.88 49.6133 363.88 55.1385 363.88 60.6634 368.279 65.1226 373.681 65.1226ZM373.681 66.4463C367.529 66.4463 362.556 61.3743 362.556 55.1385 362.556 48.9035 367.529 43.8297 373.681 43.8297 379.837 43.8297 384.807 48.9035 384.807 55.1385 384.807 61.3743 379.837 66.4463 373.681 66.4463ZM414.659 65.1226C420.062 65.1226 424.468 60.6616 424.468 55.1385 424.465 49.6143 420.062 45.152 414.659 45.152 409.257 45.152 404.858 49.6133 404.858 55.1385 404.858 60.6634 409.257 65.1226 414.659 65.1226ZM414.659 66.4463C408.504 66.4463 403.534 61.3743 403.534 55.1385 403.534 48.9035 408.504 43.8297 414.659 43.8297 420.812 43.8297 425.792 48.9028 425.792 55.1385 425.792 61.3743 420.812 66.4463 414.659 66.4463ZM525.814 32.4147C525.528 32.4147 525.152 32.1542 525.152 31.7533L525.152 0.962263C525.152 0.671859 525.416 0.298794 525.817 0.300921 529.418 0.320597 532.666 0.344172 536.341 0.360657 536.629 0.362784 537.006 0.629672 536.999 1.02832L536.731 31.7596C536.728 32.081 536.45 32.4147 536.07 32.4147L525.814 32.4147ZM526.475 31.092 535.411 31.092 535.668 1.68234C532.349 1.66473 529.305 1.64293 526.475 1.62745L526.475 31.092ZM0.660787 29.34C0.376232 29.34-0.00118293 29.0795-0.00118293 28.6787L-0.00118293 1.11063C-0.00118293 0.821286 0.263854 0.446153 0.663922 0.447158 3.81496 0.461574 7.57959 0.393744 10.9668 0.376137 11.2576 0.375073 11.6329 0.638771 11.6329 1.03961L11.6329 28.6787C11.6329 28.9631 11.37 29.34 10.9699 29.34L0.660787 29.34ZM1.32282 28.0163 10.3079 28.0163 10.3079 1.70479C7.31769 1.72553 3.69537 1.7748 1.32282 1.77268L1.32282 28.0163ZM373.681 65.1226C379.084 65.1226 383.483 60.6634 383.483 55.1385 383.483 49.6133 379.084 45.152 373.681 45.152 368.279 45.152 363.88 49.6133 363.88 55.1385 363.88 60.6634 368.279 65.1226 373.681 65.1226ZM373.681 66.4463C367.529 66.4463 362.556 61.3743 362.556 55.1385 362.556 48.9035 367.529 43.8297 373.681 43.8297 379.837 43.8297 384.807 48.9035 384.807 55.1385 384.807 61.3743 379.837 66.4463 373.681 66.4463ZM414.659 65.1226C420.062 65.1226 424.468 60.6616 424.468 55.1385 424.465 49.6143 420.062 45.152 414.659 45.152 409.257 45.152 404.858 49.6133 404.858 55.1385 404.858 60.6634 409.257 65.1226 414.659 65.1226ZM414.659 66.4463C408.504 66.4463 403.534 61.3743 403.534 55.1385 403.534 48.9035 408.504 43.8297 414.659 43.8297 420.812 43.8297 425.792 48.9028 425.792 55.1385 425.792 61.3743 420.812 66.4463 414.659 66.4463ZM525.814 32.4147C525.528 32.4147 525.152 32.1542 525.152 31.7533L525.152 0.962263C525.152 0.671859 525.416 0.298794 525.817 0.300921 529.418 0.320597 532.666 0.344172 536.341 0.360657 536.629 0.362784 537.006 0.629672 536.999 1.02832L536.731 31.7596C536.728 32.081 536.45 32.4147 536.07 32.4147L525.814 32.4147ZM526.475 31.092 535.411 31.092 535.668 1.68234C532.349 1.66473 529.305 1.64293 526.475 1.62745L526.475 31.092ZM0.660787 29.34C0.376232 29.34-0.00118293 29.0795-0.00118293 28.6787L-0.00118293 1.11063C-0.00118293 0.821286 0.263854 0.446153 0.663922 0.447158 3.81496 0.461574 7.57959 0.393744 10.9668 0.376137 11.2576 0.375073 11.6329 0.638771 11.6329 1.03961L11.6329 28.6787C11.6329 28.9631 11.37 29.34 10.9699 29.34L0.660787 29.34ZM1.32282 28.0163 10.3079 28.0163 10.3079 1.70479C7.31769 1.72553 3.69537 1.7748 1.32282 1.77268L1.32282 28.0163ZM414.659 65.1226C420.062 65.1226 424.468 60.6616 424.468 55.1385 424.465 49.6143 420.062 45.152 414.659 45.152 409.257 45.152 404.858 49.6133 404.858 55.1385 404.858 60.6634 409.257 65.1226 414.659 65.1226ZM414.659 66.4463C408.504 66.4463 403.534 61.3743 403.534 55.1385 403.534 48.9035 408.504 43.8297 414.659 43.8297 420.812 43.8297 425.792 48.9028 425.792 55.1385 425.792 61.3743 420.812 66.4463 414.659 66.4463ZM525.814 32.4147C525.528 32.4147 525.152 32.1542 525.152 31.7533L525.152 0.962263C525.152 0.671859 525.416 0.298794 525.817 0.300921 529.418 0.320597 532.666 0.344172 536.341 0.360657 536.629 0.362784 537.006 0.629672 536.999 1.02832L536.731 31.7596C536.728 32.081 536.45 32.4147 536.07 32.4147L525.814 32.4147ZM526.475 31.092 535.411 31.092 535.668 1.68234C532.349 1.66473 529.305 1.64293 526.475 1.62745L526.475 31.092ZM0.660787 29.34C0.376232 29.34-0.00118293 29.0795-0.00118293 28.6787L-0.00118293 1.11063C-0.00118293 0.821286 0.263854 0.446153 0.663922 0.447158 3.81496 0.461574 7.57959 0.393744 10.9668 0.376137 11.2576 0.375073 11.6329 0.638771 11.6329 1.03961L11.6329 28.6787C11.6329 28.9631 11.37 29.34 10.9699 29.34L0.660787 29.34ZM1.32282 28.0163 10.3079 28.0163 10.3079 1.70479C7.31769 1.72553 3.69537 1.7748 1.32282 1.77268L1.32282 28.0163ZM525.814 32.4147C525.528 32.4147 525.152 32.1542 525.152 31.7533L525.152 0.962263C525.152 0.671859 525.416 0.298794 525.817 0.300921 529.418 0.320597 532.666 0.344172 536.341 0.360657 536.629 0.362784 537.006 0.629672 536.999 1.02832L536.731 31.7596C536.728 32.081 536.45 32.4147 536.07 32.4147L525.814 32.4147ZM526.475 31.092 535.411 31.092 535.668 1.68234C532.349 1.66473 529.305 1.64293 526.475 1.62745L526.475 31.092ZM0.660787 29.34C0.376232 29.34-0.00118293 29.0795-0.00118293 28.6787L-0.00118293 1.11063C-0.00118293 0.821286 0.263854 0.446153 0.663922 0.447158 3.81496 0.461574 7.57959 0.393744 10.9668 0.376137 11.2576 0.375073 11.6329 0.638771 11.6329 1.03961L11.6329 28.6787C11.6329 28.9631 11.37 29.34 10.9699 29.34L0.660787 29.34ZM1.32282 28.0163 10.3079 28.0163 10.3079 1.70479C7.31769 1.72553 3.69537 1.7748 1.32282 1.77268L1.32282 28.0163ZM0.660787 29.34C0.376232 29.34-0.00118293 29.0795-0.00118293 28.6787L-0.00118293 1.11063C-0.00118293 0.821286 0.263854 0.446153 0.663922 0.447158 3.81496 0.461574 7.57959 0.393744 10.9668 0.376137 11.2576 0.375073 11.6329 0.638771 11.6329 1.03961L11.6329 28.6787C11.6329 28.9631 11.37 29.34 10.9699 29.34L0.660787 29.34ZM1.32282 28.0163 10.3079 28.0163 10.3079 1.70479C7.31769 1.72553 3.69537 1.7748 1.32282 1.77268L1.32282 28.0163ZM89.4077 113.302 89.4056 113.302 446.92 113.302C466.185 113.302 481.802 97.4125 481.802 77.8118L481.52 31.7533 515.265 31.7533 515.265 0.906723C498.695 0.79842 482.157 0.668668 465.953 0.626481L418.147 0.626481 383.269 0.626481 153.059 0.626481 118.178 0.626481 66.8288 0.696438C53.1427 0.615964 36.9532 0.822999 21.2546 0.969294L21.2546 28.6787 54.3317 28.6787C54.4182 31.1816 54.5256 33.7082 54.5256 36.1095L54.5256 77.8118C54.5256 97.4125 70.1418 113.302 89.406 113.302ZM138.24 70.8735C124.276 70.8735 112.949 69.348 112.949 55.1385 112.949 40.928 125.165 40.3089 139.131 40.3089 153.098 40.3089 163.525 40.927 163.525 55.1385 163.525 69.348 152.207 70.8735 138.24 70.8735ZM373.681 65.7839C367.902 65.7839 363.218 61.0189 363.218 55.1385 363.218 49.2579 367.902 44.4911 373.681 44.4911 379.46 44.4911 384.145 49.2579 384.145 55.1385 384.145 61.0189 379.46 65.7839 373.681 65.7839ZM414.659 65.7839C408.88 65.7839 404.196 61.0189 404.196 55.1385 404.196 49.2579 408.88 44.4911 414.659 44.4911 420.439 44.4911 425.13 49.2579 425.13 55.1385 425.13 61.0189 420.439 65.7839 414.659 65.7839ZM525.814 31.7533 525.814 31.7533 536.07 31.7533 536.337 1.02413C532.663 1.00551 529.411 0.981584 525.814 0.962263L525.814 31.7533ZM0.660787 28.6787 10.9699 28.6787 10.9699 1.03961C7.58882 1.05615 3.82425 1.12292 0.660787 1.11063L0.660787 28.6787Z" fill-rule="evenodd" transform="matrix(1 0 0 -1 2817 692)"/><path d="M0 0 646.25 0.000360892" stroke="#104862" stroke-width="9.16667" stroke-miterlimit="8" fill="none" fill-rule="evenodd" transform="matrix(-1 0 0 1 1700.75 637.5)"/><path d="M2242.5 430.917 2856.2 430.917 2856.2 440.084 2242.5 440.083ZM2851.61 412.584 2897.45 435.5 2851.61 458.417Z" fill="#104862"/><text font-family="Aptos,Aptos_MSFontService,sans-serif" font-weight="400" font-size="73" transform="matrix(1 0 0 1 2386.18 389)">POST RPC</text><path d="M2.52554e-06-4.58333 613.696-4.58299 613.696 4.58367-2.52554e-06 4.58333ZM609.113-22.9163 654.946 0.000360892 609.113 22.917Z" fill="#104862" transform="matrix(-1 0 0 1 3075.45 889.5)"/><text font-family="Aptos,Aptos_MSFontService,sans-serif" font-weight="400" font-size="73" transform="matrix(1 0 0 1 2509.93 843)">RPC Response</text><text font-family="Aptos,Aptos_MSFontService,sans-serif" font-weight="400" font-size="73" transform="matrix(1 0 0 1 3417.43 620)">Gekkota</text><text font-family="Aptos,Aptos_MSFontService,sans-serif" font-weight="400" font-size="73" transform="matrix(1 0 0 1 3694.95 620)">OS 4 or 5</text><text font-family="Aptos,Aptos_MSFontService,sans-serif" font-weight="400" font-size="73" transform="matrix(1 0 0 1 3592.49 708)">Devic</text><text font-family="Aptos,Aptos_MSFontService,sans-serif" font-weight="400" font-size="73" transform="matrix(1 0 0 1 3770.6 708)">e</text><path d="M1414.07 586.612C1411.42 586.327 1408.83 586.474 1407.77 586.979 1406.62 587.473 1407.12 588.286 1408.93 589 1428.32 597.06 1431.76 603.271 1415.86 607.715 1413.29 608.445 1410.13 609.13 1406.6 609.695 1404.07 610.103 1404.22 611.327 1406.89 612.244 1409.56 613.186 1414.17 613.652 1416.7 613.244 1420.75 612.563 1424.31 611.8 1427.39 610.929 1446.26 605.677 1441.52 597.025 1419.48 587.875 1418.15 587.318 1416.13 586.828 1414.07 586.612ZM1377.22 586.108C1377.02 586.085 1376.73 586.05 1376.53 586.052 1374.17 585.826 1371.87 585.983 1370.93 586.425 1369.88 586.856 1370 587.574 1371.41 588.242 1381.06 593.121 1380.63 598.451 1369.42 601.787 1367.47 602.362 1368.51 603.641 1371.59 604.479 1374.66 605.318 1379.2 605.549 1381.15 604.974 1394.93 600.859 1395.92 594.111 1383 587.566 1381.78 586.945 1379.57 586.359 1377.22 586.108ZM1336.84 585.215C1334.39 584.952 1332.09 585.06 1330.95 585.454 1329.72 585.862 1329.73 586.543 1330.85 587.202 1335.49 589.884 1335.48 591.718 1330.03 593.341 1328.17 593.928 1329.21 595.206 1332.29 596.02 1335.27 596.848 1339.91 597.09 1341.76 596.503 1349.37 594.229 1349.6 590.634 1343 586.818 1341.79 586.123 1339.29 585.477 1336.84 585.215Z" stroke="#FFFFFF" stroke-width="4.58333" stroke-miterlimit="8" fill="#1F608B" fill-rule="evenodd"/></g></svg>